<svg aria-hidden="true" style="position: absolute; width: 0; height: 0; overflow: hidden;" version="1.1" xmlns="http://www.w3.org/2000/svg" xmlns:xlink="http://www.w3.org/1999/xlink">
<defs>
<symbol id="icon-gypsy" viewBox="0 0 28 32">
<path d="M9.444 0.091c0.763-0.121 0.782-0.121 1.948-0.003 0.698 0.071 1.189 0.081 1.654 0.035 0.773-0.077 3.627-0.015 4.254 0.091 1.004 0.171 1.986 0.63 3.066 1.434 1.226 0.913 1.985 1.76 2.521 2.812 0.195 0.382 0.090 0.278-0.208-0.205-0.427-0.693-1.863-2.101-2.724-2.671-0.855-0.565-1.656-0.96-2.279-1.122-0.64-0.167-4.217-0.171-5.126-0.006-0.623 0.113-0.659 0.112-1.213-0.045-1.072-0.303-2.815-0.147-3.279 0.293-0.405 0.384-1.452 1.853-1.995 2.799-0.407 0.71-0.603 1.147-0.767 1.714-0.121 0.419-0.207 0.782-0.192 0.807s0.153 0.054 0.306 0.064c0.358 0.024 0.388 0.062 0.169 0.211-0.239 0.162-2.252 2.105-2.265 2.186-0.005 0.035 0.048 0.041 0.119 0.014 0.289-0.111 2.709-0.6 4.172-0.843 6.478-1.076 11.607-0.716 15.712 1.103 0.731 0.324 0.794 0.34 0.749 0.193-0.027-0.088-0.124-0.243-0.216-0.345-0.123-0.136-0.181-0.316-0.218-0.683-0.045-0.444-0.084-0.537-0.357-0.856-0.39-0.454-1.281-1.227-1.85-1.605-1.413-0.938-2.988-1.492-5.109-1.797-1.134-0.163-3.827-0.2-4.962-0.067-1.551 0.181-3.238 0.754-4.568 1.553-0.698 0.419-0.921 0.462-0.508 0.097 0.337-0.298 1.794-1.037 2.659-1.347 1.559-0.561 3.337-0.794 5.395-0.708 3.729 0.155 6.315 1.066 8.252 2.904 0.853 0.81 1.144 1.256 1.206 1.846 0.041 0.391 0.090 0.514 0.294 0.741 0.135 0.15 0.245 0.34 0.245 0.422 0 0.104 0.12 0.218 0.394 0.373 0.596 0.337 1.839 1.359 2.181 1.793 0.507 0.643 0.799 1.346 0.913 2.202 0.057 0.424-0.169 1.194-0.52 1.777-0.499 0.828-1.607 1.673-3.373 2.573l-0.955 0.487-0.053 0.372c-0.029 0.205-0.136 0.6-0.238 0.878l-0.185 0.506 0.238 0.2c0.131 0.11 0.42 0.3 0.642 0.422 0.513 0.282 0.249 0.317-0.296 0.040-0.201-0.102-0.365-0.158-0.365-0.125 0 0.177 0.572 0.764 1.106 1.136 0.132 0.092 0.148 0.126 0.061 0.129-0.153 0.005-0.432-0.207-1.002-0.761-0.253-0.246-0.459-0.413-0.459-0.373 0 0.128 0.795 1.041 1.047 1.202 0.132 0.085 0.197 0.155 0.145 0.155-0.193 0.003-0.658-0.292-0.921-0.583-0.149-0.165-0.287-0.3-0.307-0.3s-0.037 0.48-0.037 1.066c0 0.913-0.025 1.144-0.172 1.607-0.163 0.515-0.209 0.579-0.937 1.293-0.965 0.947-1.054 1.023-1.158 0.988-0.047-0.016-0.085 0.010-0.085 0.058s-0.149 0.276-0.331 0.508c-0.182 0.232-0.331 0.442-0.331 0.466s0.071 0.025 0.158 0.002c0.143-0.037 0.153-0.021 0.105 0.173-0.071 0.284-0.332 0.619-0.773 0.992-0.217 0.184-0.41 0.428-0.483 0.611-0.067 0.168-0.16 0.352-0.206 0.408-0.069 0.083-0.092 0.070-0.127-0.074-0.030-0.123-0.086-0.168-0.185-0.151-0.206 0.036-0.256 0.105-0.335 0.464-0.088 0.402-0.29 0.949-0.351 0.949-0.025 0-0.090-0.099-0.143-0.221-0.118-0.268-0.178-0.276-0.303-0.041-0.053 0.099-0.265 0.343-0.472 0.542-0.329 0.317-0.485 0.4-1.258 0.663-1.153 0.394-1.239 0.407-1.954 0.309-0.533-0.073-0.648-0.068-0.944 0.047-0.463 0.179-1.016 0.176-1.284-0.005-0.208-0.141-0.209-0.145-0.055-0.214 0.204-0.091 0.2-0.241-0.009-0.298-0.091-0.025-0.265-0.131-0.386-0.236l-0.221-0.19 0.284 0.049c0.314 0.054 0.855-0.014 0.855-0.107 0-0.033-0.087-0.081-0.194-0.108-0.146-0.037-0.173-0.070-0.11-0.133 0.135-0.135 0.103-0.18-0.246-0.35-0.182-0.088-0.389-0.235-0.461-0.327s-0.262-0.25-0.424-0.352c-0.162-0.102-0.339-0.24-0.393-0.306-0.064-0.077-0.213-0.121-0.41-0.121-0.292 0-0.319-0.018-0.446-0.301-0.074-0.166-0.267-0.414-0.427-0.551s-0.427-0.43-0.593-0.649c-0.165-0.219-0.408-0.488-0.538-0.596-0.135-0.112-0.275-0.324-0.325-0.49-0.065-0.216-0.151-0.322-0.333-0.409-0.372-0.177-0.612-0.503-0.612-0.833 0-0.189-0.083-0.419-0.257-0.709-0.294-0.489-0.296-0.497-0.147-0.621 0.17-0.141 0.132-0.289-0.11-0.427-0.159-0.091-0.231-0.197-0.261-0.383-0.022-0.142-0.091-0.36-0.152-0.485-0.063-0.128-0.092-0.305-0.067-0.405 0.037-0.148 0.003-0.201-0.201-0.311-0.198-0.107-0.717-0.799-0.717-0.957 0-0.019 0.096-0.075 0.214-0.124 0.123-0.051 0.233-0.164 0.258-0.265 0.040-0.159-0.047-0.737-0.122-0.812-0.017-0.017-0.302 0.004-0.634 0.045-0.861 0.108-1.774-0.065-1.774-0.337 0-0.077 0.086-0.108 0.301-0.108 0.451 0 1.803-0.478 2.272-0.804l0.404-0.281-0.003-0.876c-0.002-0.595-0.047-1.050-0.139-1.419-0.101-0.406-0.124-0.68-0.089-1.087 0.025-0.299 0.028-0.544 0.007-0.544s-0.12 0.174-0.219 0.387c-0.151 0.325-0.18 0.5-0.18 1.091-0 0.387-0.032 0.735-0.070 0.774s-0.079 0.245-0.092 0.458l-0.023 0.388-1.029-0.888c-1.072-0.925-1.407-1.261-2.056-2.062-0.449-0.555-0.612-0.851-0.748-1.363-0.113-0.424-0.133-1.595-0.030-1.699 0.038-0.038 0.188-0.298 0.332-0.576 0.616-1.185 1.075-1.666 1.99-2.083 0.341-0.155 0.626-0.389 1.273-1.046 0.734-0.744 0.864-0.915 1.078-1.416 0.134-0.313 0.294-0.769 0.356-1.012 0.162-0.635 0.687-1.793 1.231-2.714 0.341-0.578 0.67-1.006 1.196-1.555 0.794-0.83 0.823-0.845 1.921-1.020zM17.292 4.744c-0.111 0.085-0.113 0.099-0.014 0.101 0.064 0.001 0.543 0.12 1.066 0.263 1.707 0.469 3.154 1.326 4.58 2.714 0.457 0.445 0.58 0.536 0.478 0.353-0.242-0.432-1.506-1.626-2.233-2.111-0.96-0.64-1.961-1.044-3.259-1.317-0.408-0.086-0.508-0.086-0.617-0.003zM11.575 5.656c-1.501 0.206-3.309 0.633-4.815 1.138-1.326 0.444-1.644 0.589-1.762 0.799s-0.064 0.345 0.088 0.221c0.126-0.103 1.465-0.669 1.968-0.833 1.405-0.458 2.559-0.726 4.153-0.965 0.877-0.132 3.547-0.13 4.374 0.002 1.435 0.23 2.31 0.488 4.484 1.319 0.764 0.292 1.844 0.58 1.719 0.459-0.306-0.298-2.673-1.316-3.842-1.652-2.135-0.615-4.257-0.777-6.367-0.488zM11.612 6.294c-1.622 0.117-4.902 0.806-4.828 1.015 0.034 0.097 0.074 0.094 0.785-0.062 0.881-0.193 2.743-0.464 3.859-0.561 1.716-0.149 4.408 0.001 6.010 0.335 0.367 0.076 0.614 0.095 0.691 0.051 0.142-0.080-1.333-0.457-2.511-0.643-0.714-0.112-3.167-0.195-4.006-0.134zM14.641 9.394c-0.776 0.438-1.405 0.606-3.286 0.879-1.939 0.281-1.911 0.276-2.646 0.483-1.535 0.431-2.016 0.795-2.203 1.669-0.034 0.157-0.117 0.274-0.232 0.326-0.156 0.071-0.172 0.112-0.122 0.309 0.098 0.38 0.069 0.984-0.052 1.106-0.098 0.098-0.107 0.071-0.085-0.249 0.024-0.346-0.148-0.889-0.282-0.889-0.117 0-0.24 0.729-0.262 1.548-0.019 0.713-0.12 1.88-0.448 5.197-0.053 0.539 0.090 2.12 0.236 2.599 0.142 0.467 0.344 0.714 0.598 0.731 0.503 0.034 0.704 0.125 1.043 0.471 0.262 0.266 0.388 0.346 0.503 0.316 0.202-0.053 0.715 0.453 0.777 0.767 0.061 0.304 0.418 0.699 0.782 0.863 0.229 0.104 0.313 0.192 0.367 0.387 0.038 0.139 0.052 0.297 0.031 0.352-0.053 0.14 0.424 0.437 1.007 0.627 0.454 0.148 0.5 0.185 0.809 0.643 0.259 0.386 0.419 0.536 0.774 0.731 0.532 0.292 1.519 0.564 1.838 0.506 0.309-0.056 0.76-0.459 1.282-1.147 0.433-0.571 0.438-0.575 0.66-0.491 0.272 0.103 0.48-0.001 0.471-0.235-0.005-0.125 0.037-0.156 0.207-0.156 0.173 0 0.205-0.025 0.17-0.135-0.058-0.183 0.134-0.341 0.599-0.492 0.402-0.131 0.558-0.295 0.641-0.671 0.028-0.127 0.218-0.402 0.433-0.625 0.211-0.219 0.577-0.686 0.815-1.038 0.381-0.564 0.452-0.729 0.605-1.4 0.251-1.104 0.217-1.473-0.175-1.922-0.102-0.117-0.1-0.129 0.022-0.129 0.074 0 0.275 0.068 0.445 0.15 0.476 0.231 0.495 0.427 0.186 1.987-0.253 1.277-0.319 1.769-0.239 1.769 0.033 0 0.139-0.087 0.237-0.192s0.381-0.338 0.629-0.516c0.71-0.51 0.776-0.825 0.795-3.787 0.011-1.683 0.041-2.316 0.136-2.801 0.108-0.552 0.111-0.714 0.026-1.363-0.057-0.439-0.072-0.841-0.037-0.995 0.145-0.631 0.083-0.972-0.325-1.777-1.017-2.007-1.865-2.679-4.119-3.266-0.57-0.149-2.040-0.429-2.127-0.406-0.011 0.003-0.227 0.123-0.482 0.266zM10.179 11.924c-0.243 0.030-0.735 0.109-1.094 0.174s-0.815 0.119-1.014 0.119c-0.216 0-0.477 0.059-0.649 0.147-0.158 0.081-0.331 0.148-0.383 0.15-0.154 0.004-0.397 0.218-0.313 0.277 0.041 0.029 0.134 0.145 0.206 0.259 0.186 0.293 0.291 0.309 0.615 0.094 0.205-0.136 0.461-0.213 0.907-0.272 0.342-0.046 0.675-0.111 0.74-0.145 0.075-0.039 0.262-0.007 0.511 0.088 0.216 0.082 0.69 0.183 1.054 0.224s0.92 0.156 1.237 0.257c0.584 0.185 0.75 0.182 1.070-0.021 0.15-0.095 0.156-0.118 0.055-0.219-0.062-0.062-0.112-0.174-0.112-0.248 0-0.099-0.039-0.125-0.146-0.097-0.089 0.023-0.162-0.004-0.187-0.070-0.026-0.068-0.106-0.096-0.217-0.074-0.121 0.023-0.235-0.025-0.366-0.157-0.105-0.105-0.313-0.274-0.463-0.376-0.293-0.199-0.57-0.22-1.451-0.11zM15.495 12.786c-0.042 0.532 0.046 0.593 1.115 0.765 0.579 0.093 1.218 0.144 1.728 0.137 1.154-0.016 1.901 0.227 2.441 0.792 0.089 0.093 0.23 0.17 0.312 0.17s0.175 0.008 0.205 0.018c0.030 0.010 0.056-0.114 0.059-0.275 0.003-0.209-0.041-0.337-0.153-0.442-0.087-0.082-0.18-0.24-0.207-0.351-0.040-0.164-0.091-0.203-0.267-0.203-0.168 0-0.228-0.040-0.262-0.176-0.026-0.102-0.197-0.275-0.409-0.413-0.371-0.241-0.399-0.246-1.314-0.223-0.222 0.005-0.68-0.031-1.018-0.081-0.562-0.083-0.635-0.079-0.869 0.047-0.213 0.115-0.292 0.124-0.478 0.054-0.165-0.063-0.257-0.063-0.355-0.001-0.103 0.065-0.174 0.056-0.317-0.038l-0.184-0.121-0.027 0.341zM8.987 13.44c-0.251 0.054-0.582 0.18-0.735 0.279-0.332 0.214-0.83 0.682-0.83 0.78 0 0.148 0.16 0.156 0.387 0.019 0.131-0.079 0.369-0.167 0.529-0.196s0.375-0.111 0.478-0.182c0.214-0.149 0.625-0.3 0.817-0.3 0.072 0 0.221 0.034 0.331 0.076 0.19 0.072 0.193 0.081 0.062 0.177-0.113 0.083-0.125 0.138-0.066 0.307 0.102 0.291 0.44 0.461 1.111 0.559 0.661 0.097 0.981 0.045 1.036-0.166 0.026-0.101 0.064-0.124 0.123-0.075 0.053 0.044 0.126 0.045 0.193 0.003 0.155-0.098 0.42-0.086 0.463 0.021 0.020 0.051 0.040-0.025 0.043-0.168s-0.046-0.334-0.11-0.425c-0.146-0.209-0.712-0.498-1.262-0.646-0.574-0.154-1.992-0.189-2.571-0.063zM15.586 13.911c-0.301 0.074-0.588 0.191-0.638 0.259-0.13 0.178-0.199 0.665-0.117 0.824 0.038 0.074 0.091 0.257 0.118 0.407 0.053 0.296 0.428 0.679 1.11 1.135 0.358 0.239 1.070 0.437 0.966 0.268-0.027-0.044-0.144-0.1-0.259-0.126-0.223-0.049-0.581-0.374-0.5-0.454 0.026-0.026 0.586 0.131 1.244 0.35 1.031 0.343 1.274 0.398 1.762 0.398 0.337 0 0.601-0.035 0.653-0.087 0.067-0.067-0.017-0.084-0.361-0.074-0.341 0.010-0.478-0.018-0.577-0.116-0.123-0.123-0.122-0.129 0.015-0.13 0.079-0.001 0.31-0.084 0.512-0.185 0.276-0.138 0.312-0.173 0.147-0.139-0.539 0.11-1.080 0.091-1.492-0.052-0.552-0.192-0.941-0.279-1.75-0.395-0.807-0.115-1.29-0.376-0.943-0.51 0.064-0.025 0.181-0.009 0.261 0.034 0.087 0.047 0.304 0.058 0.54 0.029 0.229-0.029 0.614-0.010 0.917 0.044 0.398 0.071 0.543 0.073 0.609 0.008s-0.004-0.086-0.292-0.086c-0.471 0-0.755-0.104-0.754-0.275 0.001-0.174 0.435-0.448 0.805-0.507 0.268-0.043 0.297-0.032 0.297 0.107 0 0.085 0.055 0.27 0.122 0.411 0.11 0.231 0.159 0.261 0.502 0.304 0.209 0.026 0.506 0.013 0.66-0.030 0.321-0.089 0.432-0.046 0.719 0.278 0.111 0.125 0.248 0.228 0.304 0.228 0.265 0 0.159-0.701-0.161-1.055-0.155-0.172-0.723-0.465-1.264-0.652-0.315-0.109-0.576-0.136-1.168-0.123-0.646 0.015-0.776-0.002-0.853-0.108-0.116-0.16-0.429-0.154-1.137 0.020zM10.068 14.947c0 0.034 0.074 0.084 0.165 0.113 0.214 0.067 0.282 0.178 0.2 0.331-0.12 0.225-0.935 0.238-1.725 0.028-0.1-0.026-0.054 0.045 0.141 0.222 0.341 0.31 0.647 0.407 1.293 0.411l0.478 0.003-0.347 0.29 0.174-0.002c0.389-0.003 1.189-0.154 1.409-0.265 0.532-0.27 0.765-0.691 0.382-0.691-0.101 0-0.184-0.029-0.184-0.063s-0.25-0.086-0.556-0.114-0.752-0.112-0.992-0.187c-0.24-0.075-0.436-0.109-0.436-0.075zM14.918 16.253c-0.001 0.030-0.017 0.269-0.035 0.531-0.025 0.369-0.006 0.505 0.087 0.608 0.209 0.231 0.343 0.161 0.162-0.084-0.146-0.197-0.154-0.257-0.088-0.663 0.058-0.358 0.053-0.446-0.026-0.446-0.054 0-0.099 0.025-0.1 0.055zM15.949 18.432c0 0.041 0.058 0.14 0.129 0.219 0.099 0.11 0.125 0.254 0.113 0.622-0.015 0.452-0.007 0.477 0.137 0.439 0.084-0.022 0.215-0.001 0.292 0.047 0.102 0.064 0.173 0.065 0.267 0.006 0.15-0.094 0.212-0.454 0.097-0.569-0.044-0.044-0.079-0.149-0.079-0.235s-0.041-0.211-0.092-0.28c-0.108-0.147-0.864-0.364-0.864-0.249zM8.563 19.411c-0.976 0.268-1.141 0.422-1.141 1.061 0 0.382 0.112 0.429 0.392 0.165 0.333-0.314 0.795-0.608 0.955-0.608 0.075 0 0.256 0.056 0.401 0.125 0.224 0.107 0.269 0.11 0.299 0.019 0.042-0.125 0.342-0.431 0.593-0.605 0.149-0.103 0.162-0.141 0.083-0.236-0.14-0.169-0.802-0.136-1.582 0.078zM6.722 19.547c-0.185 0.439-0.287 1.202-0.189 1.417 0.044 0.098 0.081 0.289 0.081 0.424 0 0.148 0.043 0.263 0.107 0.288 0.059 0.023 0.177 0.179 0.262 0.347 0.189 0.372 0.257 0.339 0.147-0.071-0.045-0.167-0.079-0.709-0.075-1.205 0.004-0.622-0.027-0.992-0.102-1.196l-0.108-0.295-0.123 0.291zM11.21 19.412c-0.104 0.104-0.106 0.139-0.015 0.276 0.057 0.087 0.212 0.221 0.344 0.299 0.191 0.113 0.281 0.126 0.439 0.066 0.149-0.056 0.233-0.050 0.335 0.024 0.205 0.151 0.402 0.125 0.402-0.051 0-0.103-0.081-0.185-0.253-0.257-0.139-0.058-0.375-0.189-0.525-0.291-0.314-0.214-0.558-0.236-0.728-0.066zM13.891 19.627c-0.628 0.241-0.724 0.362-0.678 0.848 0.036 0.375 0.034 0.38-0.139 0.325-0.096-0.031-0.473-0.077-0.837-0.103-0.608-0.043-0.671-0.035-0.784 0.103-0.098 0.121-0.197 0.147-0.499 0.135-0.319-0.013-0.373 0.003-0.356 0.111 0.016 0.098-0.037 0.128-0.236 0.134-0.142 0.004-0.314 0.032-0.384 0.062-0.090 0.039-0.186-0.011-0.334-0.174-0.162-0.178-0.227-0.209-0.296-0.14-0.28 0.28 0.248 0.833 0.783 0.82 0.148-0.004 0.451-0.012 0.674-0.018s1.103 0.106 1.956 0.25c1.741 0.293 2.897 0.345 3.361 0.15 0.145-0.061 0.409-0.111 0.586-0.111 0.572 0 0.71-0.376 0.254-0.696-0.264-0.185-0.376-0.148-0.325 0.107 0.043 0.216 0.037 0.221-0.248 0.221-0.333 0-0.351-0.048-0.145-0.385 0.189-0.311 0.186-0.339-0.041-0.295-0.145 0.028-0.197 0.001-0.228-0.116-0.028-0.107-0.122-0.166-0.324-0.2-0.156-0.027-0.318-0.027-0.36-0.001s-0.076 0.020-0.076-0.012c0-0.033 0.119-0.126 0.265-0.207 0.309-0.172 0.514-0.479 0.443-0.664-0.041-0.106-0.107-0.122-0.364-0.087-0.173 0.024-0.368 0.064-0.434 0.089-0.086 0.033-0.126-0.002-0.144-0.126-0.035-0.248-0.478-0.256-1.090-0.021zM17.154 20.2c0.152 0.372 0.391 0.701 0.706 0.972 0.417 0.358 0.662 0.635 0.662 0.747 0 0.087-0.040 0.084-0.239-0.016-0.131-0.067-0.308-0.185-0.393-0.262-0.185-0.169-0.296-0.080-0.335 0.269-0.020 0.179-0.088 0.252-0.356 0.384-0.544 0.267-1.132 0.324-2.113 0.202-0.472-0.059-1.439-0.108-2.148-0.109-1.168-0.002-2.022-0.094-2.263-0.244-0.043-0.027-0.156-0.019-0.251 0.016-0.14 0.053-0.25 0.010-0.59-0.228-0.23-0.161-0.475-0.356-0.544-0.433-0.354-0.392-0.878 0.033-0.814 0.66 0.018 0.176 0.087 0.375 0.153 0.442 0.111 0.112 0.135 0.111 0.321-0.005 0.415-0.261 0.541-0.308 0.64-0.237 0.688 0.493 1.219 0.797 1.775 1.019 0.778 0.31 0.836 0.318 0.784 0.118-0.029-0.11-0.063-0.129-0.131-0.072-0.131 0.109-0.442-0.024-0.592-0.254-0.067-0.103-0.152-0.168-0.188-0.146-0.114 0.071-0.349-0.044-0.397-0.193-0.025-0.079-0.091-0.144-0.146-0.144-0.142 0-0.215-0.145-0.121-0.239 0.054-0.054 0.109-0.055 0.174-0.004 0.052 0.041 0.187 0.097 0.3 0.124s0.223 0.094 0.244 0.15c0.032 0.084 0.070 0.085 0.238 0 0.244-0.122 0.506-0.064 0.565 0.124 0.041 0.128 0.058 0.13 0.203 0.029 0.186-0.131 0.515-0.144 0.728-0.030 0.137 0.074 0.147 0.125 0.104 0.553-0.039 0.376-0.028 0.471 0.054 0.471 0.071 0 0.116-0.14 0.149-0.461 0.053-0.518 0.159-0.645 0.537-0.645 0.176 0 0.274 0.050 0.362 0.184l0.12 0.184 0.144-0.184c0.172-0.219 0.321-0.234 0.44-0.044 0.084 0.135 0.091 0.135 0.217-0.018 0.104-0.128 0.155-0.142 0.263-0.077 0.186 0.114 0.207 0.308 0.051 0.481-0.089 0.099-0.186 0.132-0.301 0.103-0.093-0.023-0.263 0.006-0.378 0.066s-0.274 0.091-0.354 0.070c-0.175-0.046-0.339 0.129-0.275 0.294 0.057 0.148 0.019 0.149 0.849-0.022 0.765-0.158 1.213-0.331 1.834-0.71 0.549-0.334 0.794-0.381 1.023-0.195 0.159 0.129 0.169 0.166 0.089 0.341-0.049 0.108-0.089 0.295-0.089 0.416s-0.049 0.339-0.11 0.485c-0.137 0.329-0.14 0.499-0.009 0.607 0.083 0.069 0.107 0.013 0.134-0.317 0.025-0.307 0.096-0.493 0.302-0.794 0.148-0.216 0.276-0.5 0.286-0.63 0.017-0.23 0.026-0.237 0.285-0.195 0.255 0.041 0.27 0.032 0.315-0.195 0.145-0.729 0.046-0.936-0.744-1.553-0.272-0.213-0.672-0.555-0.888-0.761l-0.392-0.374 0.115 0.281zM8.41 23.667c-0.058 0.23 0.005 0.342 0.192 0.342 0.182 0 0.181-0.112-0.001-0.345l-0.144-0.184-0.047 0.186zM15.593 24.303c-0.296 0.156-0.597 0.338-0.67 0.404-0.291 0.264-1.335 0.264-2.612 0.002-0.323-0.067-0.716-0.139-0.874-0.161l-0.285-0.040 0.295 0.268c0.311 0.282 0.442 0.617 0.267 0.684-0.055 0.021-0.205 0.002-0.334-0.043s-0.244-0.071-0.256-0.059c-0.012 0.013 0.065 0.146 0.172 0.298 0.116 0.164 0.339 0.341 0.55 0.438 0.195 0.090 0.373 0.221 0.396 0.292 0.055 0.175 0.256 0.269 0.435 0.205 0.081-0.030 0.252-0.009 0.384 0.046 0.317 0.133 0.677 0.127 0.73-0.011 0.023-0.061 0.119-0.11 0.213-0.11 0.253 0 0.548-0.13 0.548-0.241 0-0.067 0.077-0.089 0.248-0.069 0.246 0.029 0.25 0.025 0.444-0.485 0.108-0.283 0.258-0.57 0.333-0.639s0.179-0.23 0.23-0.359c0.051-0.129 0.157-0.327 0.235-0.441s0.13-0.219 0.115-0.235-0.269 0.1-0.565 0.256z"></path>
</symbol>
</defs>
</svg>
